<svg width="30" height="30" viewBox="0 0 30 30" fill="none" xmlns="http://www.w3.org/2000/svg">
<g clip-path="url(#clip0_572_395)">
<path d="M29.6654 13.4374C29.6654 12.2121 29.1124 11.0637 28.1701 10.2994C28.2111 10.1037 28.2314 9.91572 28.2314 9.73072C28.2314 8.20438 27.1028 6.93672 25.6364 6.71838C25.6701 6.54305 25.6861 6.37105 25.6861 6.19972C25.6861 4.57471 24.4054 3.24705 22.8011 3.16271C22.7748 3.15838 22.7481 3.15471 22.7204 3.15471C22.7071 3.15471 22.6941 3.15638 22.6804 3.15671C22.6671 3.15638 22.6541 3.15471 22.6404 3.15471C22.4878 3.15471 22.3341 3.16838 22.1718 3.19671C21.8898 1.70171 20.5874 0.588379 19.0261 0.588379C17.2558 0.588379 15.8154 2.02871 15.8154 3.79938V25.7721C15.8154 28.0131 17.6384 29.8357 19.8791 29.8357C21.3658 29.8357 22.7151 29.0314 23.4278 27.7537C23.5874 27.7884 23.7408 27.8097 23.8948 27.8197C24.8624 27.8814 25.8048 27.5644 26.5368 26.9221C27.2688 26.2797 27.7068 25.3907 27.7701 24.4187C27.7964 24.0137 27.7511 23.6074 27.6358 23.2061C28.9011 22.3091 29.6448 20.8887 29.6448 19.3324C29.6448 18.2041 29.2384 17.1207 28.4964 16.2577C29.2431 15.5017 29.6654 14.4904 29.6654 13.4374ZM28.6454 19.3331C28.6454 20.4944 28.1181 21.5597 27.2138 22.2727C26.5444 21.2074 25.3571 20.5271 24.0714 20.5271C23.7954 20.5271 23.5714 20.7511 23.5714 21.0271C23.5714 21.3031 23.7954 21.5271 24.0714 21.5271C25.1851 21.5271 26.1994 22.2247 26.5988 23.2631C26.7354 23.6257 26.7961 23.9927 26.7724 24.3544C26.7264 25.0597 26.4088 25.7047 25.8774 26.1707C25.3461 26.6371 24.6638 26.8687 23.9601 26.8221C23.7621 26.8091 23.5574 26.7664 23.3158 26.6881C23.0691 26.6074 22.8021 26.7294 22.7004 26.9681C22.2188 28.1027 21.1111 28.8361 19.8788 28.8361C18.1894 28.8361 16.8151 27.4617 16.8151 25.7724V3.79971C16.8151 2.58071 17.8068 1.58871 19.0258 1.58871C20.1584 1.58871 21.0904 2.44271 21.2118 3.55805C20.2948 4.08338 19.6744 5.06971 19.6744 6.20005C19.6744 6.47638 19.8984 6.70005 20.1744 6.70005C20.4504 6.70005 20.6744 6.47638 20.6744 6.20005C20.6744 5.08571 21.5708 4.17838 22.6798 4.15671C23.7888 4.17838 24.6851 5.08571 24.6851 6.19972C24.6851 6.40705 24.6461 6.62171 24.5654 6.85671C24.5464 6.91205 24.5374 6.97005 24.5384 7.02838C24.5388 7.04205 24.5394 7.05472 24.5408 7.06672C24.5388 7.07372 24.5374 7.07838 24.5374 7.07838C24.4981 7.23338 24.5354 7.39805 24.6378 7.52105C24.7401 7.64405 24.8928 7.71072 25.0548 7.70038C25.0894 7.69805 25.1241 7.69372 25.1854 7.68505C26.3131 7.68505 27.2308 8.60272 27.2308 9.73038C27.2308 9.92105 27.1964 10.1167 27.1234 10.3467C27.0558 10.5584 27.1361 10.7894 27.3204 10.9134C28.1318 11.4597 28.6234 12.3564 28.6584 13.3274C28.6584 13.3287 28.6581 13.3301 28.6581 13.3314C28.6581 15.0081 27.2941 16.3724 25.6174 16.3724C23.9408 16.3724 22.5764 15.0081 22.5764 13.3314C22.5764 13.0551 22.3524 12.8314 22.0764 12.8314C21.8004 12.8314 21.5764 13.0551 21.5764 13.3314C21.5764 15.5597 23.3891 17.3724 25.6174 17.3724C26.3601 17.3724 27.0541 17.1674 27.6528 16.8164C28.2928 17.5131 28.6454 18.4041 28.6454 19.3331Z" fill="black"/>
<path d="M11.0596 0.588867C9.49823 0.588867 8.19623 1.7022 7.91456 3.1972C7.7519 3.16887 7.59823 3.1552 7.44556 3.1552C7.43223 3.1552 7.41923 3.15687 7.40556 3.1572C7.39223 3.15687 7.37923 3.1552 7.36556 3.1552C7.3379 3.1552 7.31123 3.15887 7.2849 3.1632C5.68056 3.24753 4.40023 4.5752 4.40023 6.2002C4.40023 6.37153 4.41656 6.54353 4.4499 6.71886C2.98356 6.9372 1.8549 8.20486 1.8549 9.7312C1.8549 9.91586 1.87523 10.1039 1.91623 10.2999C0.973898 11.0642 0.420898 12.2125 0.420898 13.4379C0.420898 14.4909 0.842898 15.5022 1.58923 16.2589C0.846898 17.1219 0.440565 18.2052 0.440565 19.3335C0.440565 20.8899 1.18423 22.3099 2.44956 23.2072C2.3339 23.6085 2.2889 24.0149 2.31556 24.4202C2.3789 25.3919 2.81656 26.2809 3.54856 26.9232C4.28056 27.5659 5.22023 27.8829 6.19056 27.8209C6.34223 27.8109 6.4969 27.7889 6.65723 27.7545C7.3699 29.0325 8.71923 29.8369 10.2059 29.8369C12.4466 29.8369 14.2696 28.0139 14.2696 25.7732V3.79987C14.2702 2.0292 12.8299 0.588867 11.0596 0.588867ZM13.2702 25.7725C13.2702 27.4619 11.8959 28.8362 10.2066 28.8362C8.97423 28.8362 7.86656 28.1029 7.38523 26.9682C7.3049 26.7792 7.1209 26.6635 6.9249 26.6635C6.87356 26.6635 6.82123 26.6712 6.7699 26.6882C6.52856 26.7665 6.3239 26.8092 6.12556 26.8222C5.41923 26.8685 4.73956 26.6369 4.20856 26.1709C3.67723 25.7049 3.35956 25.0599 3.31356 24.3545C3.28823 23.9679 3.35523 23.5759 3.5129 23.1895C3.51523 23.1839 3.51456 23.1775 3.51656 23.1719C3.9639 22.1532 4.9249 21.5209 6.0489 21.5209C6.32523 21.5209 6.5489 21.2969 6.5489 21.0209C6.5489 20.7449 6.32523 20.5209 6.0489 20.5209C4.73623 20.5209 3.54856 21.1899 2.86623 22.2672C1.9659 21.5542 1.44056 20.4915 1.44056 19.3332C1.44056 18.4042 1.7939 17.5132 2.43323 16.8169C3.0319 17.1679 3.72623 17.3729 4.4689 17.3729C6.69723 17.3729 8.5099 15.5602 8.5099 13.3319C8.5099 13.0555 8.28623 12.8319 8.0099 12.8319C7.73356 12.8319 7.5099 13.0555 7.5099 13.3319C7.5099 15.0085 6.1459 16.3729 4.4689 16.3729C2.7919 16.3729 1.4279 15.0085 1.4279 13.3319C1.4279 13.3312 1.42756 13.3305 1.42756 13.3299C1.4619 12.3582 1.95356 11.4609 2.76523 10.9139C2.94956 10.7899 3.02956 10.5592 2.96223 10.3475C2.8889 10.1172 2.8549 9.92153 2.8549 9.73086C2.8549 8.60553 3.76856 7.6892 4.9199 7.6892C4.92223 7.6892 4.9249 7.6892 4.92723 7.6892C4.96156 7.69386 4.9959 7.6982 5.0309 7.70053C5.19256 7.71053 5.3469 7.64353 5.4489 7.51986C5.55123 7.39586 5.5879 7.23053 5.5469 7.0752C5.5469 7.07486 5.5459 7.07053 5.54423 7.06487C5.54523 7.0532 5.54623 7.04253 5.54656 7.0332C5.54823 6.9732 5.53923 6.91353 5.51956 6.85686C5.4389 6.6212 5.3999 6.4062 5.3999 6.19953C5.3999 5.08553 6.2959 4.17787 7.40523 4.15653C8.51456 4.1782 9.41056 5.08553 9.41056 6.19986C9.41056 6.4762 9.63423 6.69986 9.91056 6.69986C10.1869 6.69986 10.4106 6.4762 10.4106 6.19986C10.4106 5.06953 9.79023 4.0832 8.87323 3.55787C8.99456 2.44253 9.92656 1.58853 11.0592 1.58853C12.2782 1.58853 13.2699 2.58053 13.2699 3.79953L13.2702 25.7725Z" fill="black"/>
</g>
<defs>
<clipPath id="clip0_572_395">
<rect width="30" height="30" fill="white"/>
</clipPath>
</defs>
</svg>
