<svg width="30" height="33" viewBox="0 0 30 33" fill="none" xmlns="http://www.w3.org/2000/svg">
<path d="M2.57295 20.5741C2.35349 20.6838 2.12691 20.6909 1.89318 20.5955C1.65946 20.5 1.502 20.342 1.4208 20.1214L0.186359 16.8296C0.0491988 16.4455 -0.012249 16.0686 0.00201566 15.6988C0.0162803 15.3291 0.187457 15.075 0.515544 14.9368C1.20135 14.6625 1.83942 14.7585 2.42976 15.2248C3.02009 15.6912 3.46559 16.2947 3.76625 17.0353L4.42462 18.8047C4.50691 19.0242 4.51405 19.2233 4.44601 19.4022C4.37798 19.581 4.24741 19.7248 4.05428 19.8334L2.57295 20.5741ZM12.86 32.9185C12.3936 32.9185 11.9344 32.8225 11.4823 32.6305C11.0303 32.4385 10.6528 32.1641 10.3499 31.8075L3.68395 24.1128C3.3822 23.7562 3.24504 23.3584 3.27247 22.9195C3.2999 22.4806 3.49193 22.1103 3.84854 21.8085C4.20516 21.5068 4.60293 21.3767 5.04184 21.4184C5.48075 21.4601 5.85109 21.645 6.15284 21.9731L9.85617 26.2114C9.85617 25.9919 9.8836 25.7796 9.93847 25.5744C9.99333 25.3692 10.0756 25.1563 10.1854 24.9358L8.29254 19.5042C8.15538 19.0653 8.18281 18.6401 8.37484 18.2286C8.56686 17.8171 8.88233 17.5428 9.32125 17.4057C9.76016 17.2685 10.1854 17.2959 10.5968 17.488C11.0083 17.68 11.2826 17.9955 11.4198 18.4344L13.0246 23.043H13.971V18.1052C13.971 17.6388 14.129 17.2482 14.445 16.9333C14.761 16.6184 15.1517 16.4604 15.6169 16.4593C16.0822 16.4582 16.4733 16.6162 16.7905 16.9333C17.1076 17.2504 17.265 17.641 17.2628 18.1052V23.043H18.2504L19.1145 19.3808C19.2242 18.9144 19.4645 18.5644 19.8354 18.3307C20.2063 18.097 20.6244 18.0355 21.0896 18.1463C21.5549 18.2572 21.9049 18.4975 22.1397 18.8673C22.3745 19.237 22.436 19.6551 22.3241 20.1214L21.6657 23.043C21.8028 23.0704 21.9471 23.0978 22.0986 23.1253C22.25 23.1527 22.3937 23.1938 22.5298 23.2487L23.147 21.6439C23.3116 21.205 23.5996 20.8895 24.0111 20.6975C24.4226 20.5055 24.8478 20.4918 25.2867 20.6564C25.6982 20.821 25.9928 21.109 26.1706 21.5205C26.3483 21.932 26.3555 22.3572 26.192 22.7961L24.6695 26.8286V29.6267C24.6695 30.5319 24.3469 31.3072 23.7017 31.9524C23.0565 32.5976 22.2818 32.9196 21.3776 32.9185H12.86ZM7.83991 7.44782C7.62046 7.47525 7.4213 7.4138 7.24244 7.26347C7.06358 7.11315 6.96099 6.92771 6.93465 6.70715L6.56432 3.45645C6.50946 2.9901 6.62632 2.58575 6.9149 2.2434C7.20349 1.90105 7.5804 1.70189 8.04565 1.64593C8.5109 1.58997 8.9158 1.70683 9.26035 1.99651C9.60489 2.2862 9.8035 2.66311 9.85617 3.12726L10.1854 6.37797C10.2128 6.59742 10.1513 6.79658 10.001 6.97544C9.85069 7.15429 9.66524 7.25689 9.44469 7.28323L7.83991 7.44782ZM8.74517 15.842C8.49828 15.8969 8.27224 15.8558 8.06705 15.7186C7.86186 15.5814 7.745 15.3894 7.71647 15.1425L7.22269 10.8631C7.16783 10.3968 7.28469 9.99242 7.57327 9.65007C7.86186 9.30771 8.23878 9.10856 8.70402 9.0526C9.16927 8.99663 9.57417 9.11349 9.91872 9.40318C10.2633 9.69286 10.4619 10.0698 10.5145 10.5339L10.9672 14.5253C10.9946 14.7448 10.9535 14.9368 10.8437 15.1014C10.734 15.266 10.5694 15.3757 10.3499 15.4306L8.74517 15.842ZM14.7939 14.8133C14.5745 14.8133 14.3825 14.731 14.2179 14.5664C14.0533 14.4019 13.971 14.2098 13.971 13.9904V9.87556C13.971 9.40921 14.129 9.01858 14.445 8.70366C14.761 8.38874 15.1517 8.23073 15.6169 8.22963C16.0822 8.22854 16.4733 8.38654 16.7905 8.70366C17.1076 9.02077 17.265 9.41141 17.2628 9.87556V13.9904C17.2628 14.2098 17.1805 14.4019 17.0159 14.5664C16.8514 14.731 16.6593 14.8133 16.4399 14.8133H14.7939ZM14.7939 6.58371C14.5745 6.58371 14.3825 6.50141 14.2179 6.33682C14.0533 6.17223 13.971 5.9802 13.971 5.76074V1.64593C13.971 1.17959 14.129 0.788953 14.445 0.474032C14.761 0.159112 15.1517 0.00110296 15.6169 5.6756e-06C16.0822 -0.00109161 16.4733 0.156917 16.7905 0.474032C17.1076 0.791147 17.265 1.18178 17.2628 1.64593V5.76074C17.2628 5.9802 17.1805 6.17223 17.0159 6.33682C16.8514 6.50141 16.6593 6.58371 16.4399 6.58371H14.7939ZM21.9949 16.7061L20.3489 16.2947C20.1295 16.2398 19.9649 16.1301 19.8552 15.9655C19.7454 15.8009 19.7043 15.6089 19.7317 15.3894L20.1844 11.3569C20.2392 10.8905 20.4384 10.5136 20.7818 10.2261C21.1253 9.93865 21.5296 9.82179 21.9949 9.87556C22.4601 9.92933 22.8376 10.1285 23.1273 10.473C23.417 10.8176 23.5333 11.2219 23.4762 11.6861L23.0236 16.0066C22.9961 16.2535 22.8798 16.4455 22.6746 16.5827C22.4694 16.7199 22.2429 16.761 21.9949 16.7061ZM22.9413 8.43537L21.2954 8.27078C21.0759 8.24335 20.891 8.1402 20.7407 7.96135C20.5903 7.78249 20.5284 7.58388 20.5547 7.36552L20.8839 4.11482C20.9387 3.64847 21.1379 3.27156 21.4813 2.98407C21.8248 2.69658 22.2291 2.57972 22.6944 2.63349C23.1596 2.68725 23.5371 2.88641 23.8268 3.23096C24.1165 3.5755 24.2328 3.97985 24.1757 4.444L23.8465 7.69471C23.8191 7.91416 23.7165 8.0996 23.5387 8.25103C23.361 8.40245 23.1618 8.4639 22.9413 8.43537ZM26.2331 19.3396L24.6284 18.8459C24.4089 18.791 24.2509 18.6675 24.1543 18.4755C24.0578 18.2835 24.0375 18.0778 24.0934 17.8583L24.7106 15.554C24.8478 15.1151 25.1084 14.7793 25.4925 14.5467C25.8765 14.3141 26.288 14.2658 26.7269 14.4019C27.1658 14.5379 27.495 14.7914 27.7145 15.1623C27.9339 15.5332 27.9888 15.9381 27.8791 16.377L27.2618 18.7636C27.207 18.983 27.0764 19.1476 26.8701 19.2573C26.6638 19.3671 26.4515 19.3945 26.2331 19.3396ZM27.9613 13.1263L26.3566 12.7148C26.1371 12.6599 25.9725 12.5293 25.8628 12.323C25.7531 12.1168 25.7256 11.9044 25.7805 11.6861L26.3154 9.79326C26.5075 9.13489 26.7406 8.51767 27.0149 7.9416C27.2893 7.36552 27.7145 7.14607 28.2905 7.28323C28.9763 7.44782 29.3878 7.90045 29.525 8.64111C29.6621 9.38178 29.621 10.1499 29.4015 10.9454L28.9489 12.5502C28.894 12.7696 28.7706 12.9342 28.5786 13.044C28.3865 13.1537 28.1808 13.1811 27.9613 13.1263Z" fill="black"/>
</svg>
