<svg width="32" height="21" viewBox="0 0 32 21" fill="none" xmlns="http://www.w3.org/2000/svg">
  <path fill-rule="evenodd" clip-rule="evenodd" d="M15.9881 18.6043C21.8514 18.6043 27.1594 15.334 30.0111 10.1742C27.1594 5.01445 21.8514 1.74416 15.9881 1.74416C10.1248 1.74416 4.81678 5.01445 1.96508 10.1742C4.81678 15.334 10.1248 18.6043 15.9881 18.6043ZM15.9881 0C22.9763 0 29.0286 4.13946 31.9762 10.1742C29.0286 16.209 22.9763 20.3485 15.9881 20.3485C8.99984 20.3485 2.94762 16.209 0 10.1742C2.94762 4.13946 8.99984 0 15.9881 0ZM15.9881 14.2439C17.0674 14.2439 18.1026 13.8152 18.8658 13.052C19.629 12.2887 20.0578 11.2536 20.0578 10.1742C20.0578 9.09489 19.629 8.05975 18.8658 7.29653C18.1026 6.53332 17.0674 6.10455 15.9881 6.10455C14.9087 6.10455 13.8736 6.53332 13.1104 7.29653C12.3472 8.05975 11.9184 9.09489 11.9184 10.1742C11.9184 11.2536 12.3472 12.2887 13.1104 13.052C13.8736 13.8152 14.9087 14.2439 15.9881 14.2439ZM15.9881 15.9881C14.4462 15.9881 12.9674 15.3756 11.8771 14.2853C10.7868 13.1949 10.1742 11.7162 10.1742 10.1742C10.1742 8.63231 10.7868 7.15354 11.8771 6.06323C12.9674 4.97292 14.4462 4.36039 15.9881 4.36039C17.53 4.36039 19.0088 4.97292 20.0991 6.06323C21.1894 7.15354 21.8019 8.63231 21.8019 10.1742C21.8019 11.7162 21.1894 13.1949 20.0991 14.2853C19.0088 15.3756 17.53 15.9881 15.9881 15.9881Z" fill="black"/>
</svg>
