<svg width="32" height="29" viewBox="0 0 32 29" fill="none" xmlns="http://www.w3.org/2000/svg">
<g clip-path="url(#clip0_572_343)">
<path d="M31.9988 21.5042C31.9893 19.5961 31.8204 17.5182 31.4921 15.3141C31.3875 14.6121 31.2561 13.9238 31.104 13.2503C31.1159 13.1068 31.0892 12.9583 31.016 12.8219C31.0106 12.8118 31.0032 12.8039 30.9975 12.7942C30.0088 8.71218 28.2612 5.22433 26.8507 2.86621C25.8853 1.25196 24.2995 0.28833 22.6087 0.28833C22.0296 0.28833 21.4578 0.400762 20.9091 0.622377L17.3464 2.06187H14.6549L11.092 0.622377C10.5433 0.400607 9.97155 0.28833 9.39238 0.28833C7.70173 0.28833 6.11594 1.25196 5.15045 2.86621C3.73988 5.22433 1.99247 8.71203 1.00379 12.7941C0.998063 12.8038 0.990485 12.8118 0.985072 12.8219C0.911767 12.9584 0.885013 13.1071 0.897076 13.2507C0.745053 13.9241 0.613754 14.6124 0.50921 15.3141C0.149491 17.7285 -0.0212439 19.9943 0.00210841 22.0482C0.0410805 25.4914 2.57412 28.5117 5.42295 28.5119C5.74957 28.5119 6.07743 28.4724 6.39741 28.3947C8.23435 27.9482 9.77159 26.6437 10.5246 25.9055C12.1872 24.2758 13.5644 21.9168 14.3881 20.3191C14.7942 20.7258 15.3553 20.9779 15.9742 20.9779C16.6114 20.9779 17.1857 20.7096 17.5945 20.2815C18.4158 21.8797 19.8017 24.2631 21.4773 25.9055C22.23 26.6434 23.7672 27.9482 25.6043 28.3947C25.9241 28.4724 26.252 28.5119 26.5788 28.5119C29.4275 28.5119 31.9606 25.4915 31.9996 22.0482C32.0015 21.8795 32.0001 21.7071 31.9995 21.5356C31.9988 21.525 31.9995 21.5145 31.9988 21.5042ZM3.62543 9.54282C4.56649 10.1085 6.4622 10.989 9.24299 11.0714C9.42811 11.0768 9.60874 11.0794 9.78643 11.0794C11.4393 11.0794 12.7659 10.8524 13.7316 10.6002V11.1908C12.7109 11.7712 9.7354 13.3409 7.20855 13.4629C5.09586 13.5661 3.43459 13.0713 2.60736 12.7546C2.89641 11.6311 3.24422 10.5559 3.62543 9.54282ZM5.27649 5.82655C6.13512 6.35685 8.06516 7.44667 10.0037 7.84258C10.8682 8.01919 11.6727 8.07827 12.3632 8.07827C12.8962 8.07827 13.3597 8.04285 13.7316 7.99909V8.9921C12.7933 9.27481 11.2839 9.58535 9.28892 9.5255C6.58036 9.44539 4.84764 8.49954 4.21311 8.08477C4.55845 7.28027 4.91816 6.52526 5.27649 5.82655ZM27.788 8.08446C27.1508 8.50109 25.4186 9.44539 22.7123 9.5255C20.717 9.58396 19.2081 9.27357 18.2698 8.99133V7.99924C18.6416 8.04301 19.1051 8.07842 19.638 8.07842C20.3286 8.07842 21.1332 8.01919 21.9975 7.84274C23.9361 7.44683 25.866 6.357 26.7248 5.8267C27.0831 6.52526 27.4427 7.28011 27.788 8.08446ZM29.3945 12.756C28.5721 13.0723 26.9209 13.5642 24.7929 13.4628C22.2721 13.3411 19.2921 11.7707 18.27 11.1903V10.6C19.2356 10.8523 20.5621 11.0791 22.215 11.0791C22.3924 11.0791 22.5735 11.0765 22.7584 11.0711C25.5392 10.9888 27.4351 10.1082 28.376 9.54251C28.7572 10.5564 29.1052 11.6322 29.3945 12.756ZM29.9626 15.5419C30.0201 15.9279 30.0707 16.308 30.1181 16.6854C29.7164 17.0657 28.4269 17.969 25.4418 17.7072C21.9603 17.4014 18.9922 14.2303 18.27 13.399V12.9533C19.7404 13.7212 22.3429 14.893 24.7182 15.0076C24.939 15.0182 25.1548 15.0233 25.3663 15.0233C27.2896 15.0233 28.8209 14.6095 29.7416 14.277C29.8245 14.6935 29.899 15.1151 29.9626 15.5419ZM6.63479 15.0232C6.8462 15.0232 7.06241 15.0182 7.28294 15.0074C9.65823 14.8928 12.2609 13.721 13.7313 12.9532V13.3987C13.0095 14.2295 10.0413 17.4011 6.55933 17.707C3.58105 17.9673 2.29466 17.0725 1.88344 16.6821C1.93077 16.3057 1.98134 15.9267 2.03871 15.5417C2.10227 15.1149 2.17666 14.6933 2.25955 14.2768C3.18035 14.6095 4.7114 15.0232 6.63479 15.0232ZM1.54893 21.3387C1.55836 20.4184 1.60816 19.4543 1.69477 18.4549C2.48318 18.8991 3.69549 19.3019 5.50383 19.3019C5.87499 19.3019 6.27198 19.2849 6.6948 19.2477C9.68823 18.9849 12.2446 17.0405 13.7314 15.6321V16.1483C12.1374 18.1066 7.96882 22.5276 5.25314 22.5276C2.63984 22.5276 1.76854 21.6387 1.54893 21.3387ZM18.27 15.6321C19.7568 17.0403 22.313 18.9847 25.3065 19.2475C25.7296 19.2846 26.1261 19.3018 26.4974 19.3018C28.3056 19.3018 29.5179 18.8988 30.3065 18.4546C30.3934 19.4581 30.4431 20.4258 30.4523 21.3495C30.251 21.6321 29.4012 22.5275 26.7481 22.5275C24.0362 22.5275 19.8654 18.1063 18.27 16.148V15.6321ZM25.9899 4.4619C25.2678 4.9124 23.4438 5.96883 21.6882 6.32746C20.2384 6.62347 18.9716 6.53531 18.2698 6.43928V5.36615C18.2858 5.36615 18.3003 5.36646 18.3165 5.36646C19.2172 5.36646 20.6559 5.27413 21.9595 4.78574C23.4166 4.23983 24.296 3.28068 24.727 2.68898C25.0279 2.95777 25.2981 3.28315 25.5234 3.65988C25.6753 3.91398 25.8314 4.18137 25.9899 4.4619ZM21.4884 2.0563C21.8522 1.90938 22.2291 1.83484 22.6087 1.83484C22.8622 1.83484 23.1127 1.87026 23.3571 1.93521C23.0173 2.35725 22.3908 2.97277 21.417 3.33759C20.3125 3.75144 19.0397 3.82134 18.2698 3.81855V3.35661L21.4884 2.0563ZM10.5127 2.0563L13.7314 3.35661V3.81964C12.9636 3.82319 11.6942 3.7536 10.5841 3.33774C9.61168 2.97339 8.98488 2.35725 8.64464 1.93506C8.88884 1.87041 9.13906 1.835 9.39238 1.835C9.77205 1.83484 10.1491 1.90923 10.5127 2.0563ZM7.27428 2.68898C7.70529 3.28068 8.58448 4.23983 10.0416 4.7859C11.3453 5.27413 12.7839 5.36646 13.6847 5.36646C13.701 5.36646 13.7155 5.36615 13.7314 5.36615V6.44082C13.034 6.53748 11.7735 6.62548 10.313 6.32746C8.56314 5.97006 6.73501 4.91225 6.01155 4.4616C6.17007 4.18121 6.32596 3.91382 6.47782 3.66004C6.70315 3.28315 6.97333 2.95777 7.27428 2.68898ZM9.44187 24.8012C8.80239 25.428 7.50919 26.5328 6.03212 26.8921C5.83154 26.9408 5.62678 26.9655 5.4231 26.9655C3.78705 26.9654 2.25306 25.3885 1.73451 23.3997C2.51627 23.7782 3.64167 24.0743 5.25314 24.0743C8.03331 24.0743 11.3509 21.0608 13.3558 18.9216C12.6605 20.3495 11.2003 23.0776 9.44187 24.8012ZM26.5783 26.9654C26.3746 26.9654 26.1696 26.9408 25.9692 26.8919C24.4919 26.5328 23.1989 25.4278 22.5595 24.8012C20.8046 23.0808 19.343 20.3515 18.6466 18.9223C20.6515 21.0612 23.9686 24.074 26.7481 24.074C28.3597 24.074 29.485 23.7778 30.2669 23.3994C29.7484 25.3885 28.2147 26.9654 26.5783 26.9654Z" fill="black"/>
</g>
<defs>
<clipPath id="clip0_572_343">
<rect width="32.0006" height="28.8001" fill="white"/>
</clipPath>
</defs>
</svg>
