<svg width="30" height="30" viewBox="0 0 30 30" fill="none" xmlns="http://www.w3.org/2000/svg">
<g clip-path="url(#clip0_572_424)">
<path d="M11.3815 3.21947V0.197266H13.0262V3.28361L13.0237 3.31404C13.0027 3.60292 12.934 3.88634 12.8206 4.15286C13.2211 4.2976 13.2483 4.76963 13.2606 5.00154C13.2628 5.03992 13.265 5.07035 13.2672 5.09282C13.856 5.3675 14.194 6.05829 14.0353 6.72358C13.8765 7.38888 13.2754 7.80006 12.643 7.70878C12.4512 7.98488 12.2192 8.23075 11.9547 8.43822C12.041 9.1068 11.6537 9.74167 11.0246 9.91026C10.3955 10.0788 9.74167 9.72194 9.48263 9.10023C9.1499 9.0527 8.82614 8.95568 8.5221 8.8124C8.02046 9.20713 7.2943 9.15286 6.82391 8.65615C6.65864 8.48073 6.53952 8.26703 6.47722 8.03422C6.41493 7.80141 6.41142 7.55677 6.467 7.32227C5.58953 7.50977 4.48756 7.90861 3.58542 8.64134C2.61256 9.43082 1.842 10.629 1.842 12.5015V21.6249H0.197266V12.5024C0.197266 10.0928 1.2244 8.43986 2.54842 7.36503C3.842 6.31404 5.38805 5.83378 6.47111 5.64628C8.87983 5.22852 10.1126 4.65697 10.7351 4.17835C11.2844 3.75565 11.3642 3.4045 11.3815 3.21947ZM19.4177 0.197266V3.47029C19.4538 3.69809 19.5739 4.0369 20.0509 4.40861C20.5912 4.83131 21.6134 5.31404 23.5287 5.64628C24.6117 5.83378 26.1578 6.31404 27.4514 7.36503C28.7754 8.44069 29.8033 10.0928 29.8033 12.5015V21.6249H28.1586V12.5024C28.1586 10.629 27.3872 9.43164 26.4152 8.64134C25.4119 7.8272 24.1619 7.42506 23.2474 7.26634C21.1956 6.91108 19.8757 6.35927 19.0369 5.70467C18.1677 5.02539 17.8576 4.26306 17.7787 3.62901L17.7729 3.57802V0.197266H19.4177Z" fill="black"/>
<path d="M23.7873 9.51718C23.5178 9.51652 23.251 9.56925 23.002 9.67233C22.7531 9.7754 22.5271 9.92678 22.337 10.1177C22.1469 10.3086 21.9965 10.5353 21.8945 10.7847C21.7926 11.0341 21.741 11.3012 21.7429 11.5706V12.2022C21.1466 11.6808 20.1919 11.5493 19.4188 11.9308C18.5841 12.342 18.2511 13.2096 18.5989 13.9514C18.3023 14.2712 18.0563 14.6345 17.8695 15.0287C16.9435 15.143 16.2313 15.8231 16.2313 16.6455C16.2313 17.4678 16.9435 18.1488 17.8695 18.2622C18.0521 18.652 18.2988 19.0147 18.5989 19.3395C18.2503 20.0821 18.5841 20.9489 19.4188 21.3609C20.1919 21.7417 21.1466 21.6093 21.7429 21.0879V29.8025H23.3876V11.5706C23.3876 11.333 23.5652 11.1619 23.7873 11.1619C23.9797 11.1619 24.1047 11.1981 24.1836 11.2343C24.2481 11.2624 24.3058 11.3039 24.3529 11.3561C24.4 11.4083 24.4353 11.4699 24.4567 11.5369V21.6249H26.1014V11.4942C26.1014 11.1619 25.9468 10.6866 25.6055 10.291C25.2256 9.85024 24.6244 9.51718 23.7873 9.51718ZM4.39335 10.291C4.77328 9.85024 5.37443 9.518 6.21161 9.518C7.557 9.51718 8.42049 10.6496 8.42049 11.8338V21.7598C8.69598 21.5542 9.09154 21.5147 9.41555 21.6882C9.80207 21.8938 9.95585 22.328 9.79466 22.6989C9.93392 22.8623 10.0463 23.0418 10.1318 23.2376C10.5595 23.2951 10.8876 23.6348 10.8876 24.046C10.8876 24.4571 10.5586 24.7976 10.131 24.8544C10.0463 25.0496 9.93297 25.2312 9.79466 25.393C9.95585 25.7639 9.80124 26.1981 9.41638 26.4037C9.26023 26.4859 9.08421 26.5227 8.90822 26.5101C8.73223 26.4974 8.56329 26.4358 8.42049 26.3321V29.8025H6.77575V11.8338C6.77575 11.393 6.49121 11.1619 6.21161 11.1619C6.01999 11.1619 5.89417 11.1981 5.81522 11.2343C5.75078 11.2624 5.69309 11.3039 5.646 11.3561C5.59892 11.4083 5.56352 11.4699 5.5422 11.5369V21.6249H3.89746V11.4942C3.89746 11.1619 4.05207 10.6866 4.39335 10.291ZM15.8218 7.59859C16.0399 7.59859 16.2491 7.51195 16.4033 7.35773C16.5575 7.2035 16.6442 6.99433 16.6442 6.77623C16.6442 6.55812 16.5575 6.34895 16.4033 6.19472C16.2491 6.0405 16.0399 5.95386 15.8218 5.95386C15.6037 5.95386 15.3945 6.0405 15.2403 6.19472C15.0861 6.34895 14.9994 6.55812 14.9994 6.77623C14.9994 6.99433 15.0861 7.2035 15.2403 7.35773C15.3945 7.51195 15.6037 7.59859 15.8218 7.59859ZM14.1771 10.0657C14.3952 10.0657 14.6043 9.97906 14.7586 9.82483C14.9128 9.67061 14.9994 9.46144 14.9994 9.24333C14.9994 9.02523 14.9128 8.81605 14.7586 8.66183C14.6043 8.5076 14.3952 8.42096 14.1771 8.42096C13.959 8.42096 13.7498 8.5076 13.5956 8.66183C13.4413 8.81605 13.3547 9.02523 13.3547 9.24333C13.3547 9.46144 13.4413 9.67061 13.5956 9.82483C13.7498 9.97906 13.959 10.0657 14.1771 10.0657Z" fill="black"/>
<path d="M12.1213 21.7638C12.1213 21.9819 12.0347 22.1911 11.8804 22.3453C11.7262 22.4995 11.517 22.5862 11.2989 22.5862C11.0808 22.5862 10.8717 22.4995 10.7174 22.3453C10.5632 22.1911 10.4766 21.9819 10.4766 21.7638C10.4766 21.5457 10.5632 21.3365 10.7174 21.1823C10.8717 21.0281 11.0808 20.9414 11.2989 20.9414C11.517 20.9414 11.7262 21.0281 11.8804 21.1823C12.0347 21.3365 12.1213 21.5457 12.1213 21.7638ZM12.5325 24.8682C12.7506 24.8682 12.9598 24.7816 13.114 24.6274C13.2682 24.4732 13.3549 24.264 13.3549 24.0459C13.3549 23.8278 13.2682 23.6186 13.114 23.4644C12.9598 23.3101 12.7506 23.2235 12.5325 23.2235C12.3144 23.2235 12.1052 23.3101 11.951 23.4644C11.7968 23.6186 11.7101 23.8278 11.7101 24.0459C11.7101 24.264 11.7968 24.4732 11.951 24.6274C12.1052 24.7816 12.3144 24.8682 12.5325 24.8682ZM18.1723 21.726C18.2798 21.7443 18.3825 21.7839 18.4746 21.8423C18.5666 21.9007 18.6461 21.9769 18.7085 22.0663C18.7708 22.1557 18.8148 22.2567 18.8377 22.3633C18.8607 22.4698 18.8623 22.5799 18.8423 22.6871C18.8224 22.7943 18.7813 22.8964 18.7215 22.9876C18.6617 23.0788 18.5844 23.1571 18.494 23.2182C18.4037 23.2792 18.3021 23.3216 18.1952 23.343C18.0883 23.3644 17.9782 23.3643 17.8713 23.3427C17.6596 23.3001 17.4731 23.1758 17.3523 22.9968C17.2314 22.8178 17.1858 22.5984 17.2254 22.3861C17.2649 22.1738 17.3864 21.9855 17.5635 21.862C17.7407 21.7385 17.9594 21.6896 18.1723 21.726ZM16.9313 19.4036C17.0388 19.422 17.1415 19.4615 17.2336 19.5199C17.3256 19.5784 17.4052 19.6545 17.4675 19.7439C17.5299 19.8334 17.5738 19.9343 17.5968 20.0409C17.6198 20.1475 17.6213 20.2576 17.6014 20.3647C17.5814 20.4719 17.5403 20.5741 17.4805 20.6652C17.4208 20.7564 17.3434 20.8348 17.2531 20.8958C17.1627 20.9568 17.0611 20.9992 16.9542 21.0206C16.8473 21.042 16.7372 21.0419 16.6303 21.0204C16.4186 20.9777 16.2322 20.8534 16.1113 20.6744C15.9905 20.4954 15.9449 20.2761 15.9844 20.0637C16.0239 19.8514 16.1454 19.6631 16.3226 19.5396C16.4998 19.4161 16.7184 19.3672 16.9313 19.4036ZM16.6443 12.5327C16.8624 12.5327 17.0716 12.6194 17.2258 12.7736C17.3801 12.9278 17.4667 13.137 17.4667 13.3551C17.4667 13.5732 17.3801 13.7824 17.2258 13.9366C17.0716 14.0908 16.8624 14.1775 16.6443 14.1775C16.4262 14.1775 16.217 14.0908 16.0628 13.9366C15.9086 13.7824 15.822 13.5732 15.822 13.3551C15.822 13.137 15.9086 12.9278 16.0628 12.7736C16.217 12.6194 16.4262 12.5327 16.6443 12.5327Z" fill="black"/>
</g>
<defs>
<clipPath id="clip0_572_424">
<rect width="30" height="30" fill="white"/>
</clipPath>
</defs>
</svg>
