<svg width="24" height="24" viewBox="-4 -6 30 30" fill="none" xmlns="http://www.w3.org/2000/svg">
  <g>
    <path d="M1.64474 9.23108C1.64474 9.44919 1.55809 9.65836 1.40387 9.81259C1.24965 9.96681 1.04047 10.0535 0.822368 10.0535C0.604263 10.0535 0.395089 9.96681 0.240865 9.81259C0.0866415 9.65836 0 9.44919 0 9.23108C0 9.01298 0.0866415 8.80381 0.240865 8.64958C0.395089 8.49536 0.604263 8.40872 0.822368 8.40872C1.04047 8.40872 1.24965 8.49536 1.40387 8.64958C1.55809 8.80381 1.64474 9.01298 1.64474 9.23108ZM2.05592 12.3355C2.27403 12.3355 2.4832 12.2489 2.63742 12.0947C2.79165 11.9404 2.87829 11.7313 2.87829 11.5132C2.87829 11.2951 2.79165 11.0859 2.63742 10.9317C2.4832 10.7774 2.27403 10.6908 2.05592 10.6908C1.83781 10.6908 1.62864 10.7774 1.47442 10.9317C1.32019 11.0859 1.23355 11.2951 1.23355 11.5132C1.23355 11.7313 1.32019 11.9404 1.47442 12.0947C1.62864 12.2489 1.83781 12.3355 2.05592 12.3355ZM7.69572 9.19326C7.80319 9.21161 7.90594 9.25115 7.99799 9.30958C8.09004 9.36801 8.16955 9.44415 8.2319 9.53359C8.29425 9.62303 8.33819 9.72398 8.36117 9.83055C8.38415 9.93713 8.3857 10.0472 8.36575 10.1544C8.3458 10.2616 8.30473 10.3637 8.24494 10.4549C8.18514 10.5461 8.10782 10.6244 8.01746 10.6854C7.9271 10.7465 7.82552 10.7889 7.71861 10.8103C7.6117 10.8317 7.50161 10.8316 7.39474 10.81C7.18301 10.7673 6.99658 10.6431 6.87572 10.4641C6.75486 10.2851 6.70927 10.0657 6.7488 9.85338C6.78833 9.64104 6.9098 9.45278 7.08698 9.32927C7.26416 9.20575 7.48282 9.1569 7.69572 9.19326ZM6.45477 6.87089C6.56224 6.88924 6.66499 6.92878 6.75703 6.98721C6.84908 7.04564 6.92859 7.12179 6.99094 7.21123C7.05329 7.30066 7.09723 7.40161 7.12021 7.50818C7.14319 7.61476 7.14475 7.72484 7.1248 7.83203C7.10484 7.93921 7.06378 8.04136 7.00398 8.13253C6.94419 8.2237 6.86687 8.30206 6.77651 8.36307C6.68615 8.42408 6.58456 8.46652 6.47766 8.4879C6.37075 8.50929 6.26066 8.50921 6.15378 8.48766C5.94206 8.44497 5.75563 8.32071 5.63477 8.14171C5.5139 7.96271 5.46831 7.74334 5.50784 7.53101C5.54737 7.31867 5.66885 7.13041 5.84603 7.0069C6.02321 6.88338 6.24187 6.83453 6.45477 6.87089ZM6.16776 0C6.38587 0 6.59504 0.0866415 6.74926 0.240865C6.90349 0.395089 6.99013 0.604263 6.99013 0.822368C6.99013 1.04047 6.90349 1.24965 6.74926 1.40387C6.59504 1.5581 6.38587 1.64474 6.16776 1.64474C5.94966 1.64474 5.74048 1.5581 5.58626 1.40387C5.43203 1.24965 5.34539 1.04047 5.34539 0.822368C5.34539 0.604263 5.43203 0.395089 5.58626 0.240865C5.74048 0.0866415 5.94966 0 6.16776 0Z" fill="black" transform="translate(6, 6)"/>
    <path d="M19.8898 3.56332C19.6204 3.56266 19.3535 3.6154 19.1046 3.71847C18.8556 3.82155 18.6296 3.97292 18.4395 4.16385C18.2494 4.35478 18.0991 4.58149 17.9971 4.83087C17.8951 5.08025 17.8435 5.34736 17.8454 5.61678V6.24835C17.2492 5.72697 16.2944 5.59539 15.5214 5.97697C14.6867 6.38816 14.3536 7.25576 14.7015 7.99753C14.4048 8.31733 14.1588 8.68063 13.972 9.07484C13.0461 9.18915 12.3339 9.86924 12.3339 10.6916C12.3339 11.514 13.0461 12.1949 13.972 12.3084C14.1546 12.6982 14.4013 13.0609 14.7015 13.3857C14.3528 14.1283 14.6867 14.9951 15.5214 15.4071C16.2944 15.7878 17.2492 15.6554 17.8454 15.134V23.8487H19.4901V5.61678C19.4901 5.37911 19.6678 5.20806 19.8898 5.20806C20.0822 5.20806 20.2072 5.24424 20.2862 5.28043C20.3506 5.30851 20.4083 5.35004 20.4554 5.40223C20.5025 5.45443 20.5379 5.51608 20.5592 5.58306V15.6711H22.2039V5.5403C22.2039 5.20806 22.0493 4.73273 21.7081 4.33717C21.3281 3.89638 20.727 3.56332 19.8898 3.56332ZM0.495888 4.33717C0.875822 3.89638 1.47697 3.56414 2.31415 3.56414C3.65954 3.56332 4.52303 4.69572 4.52303 5.87993V15.8059C4.79852 15.6003 5.19408 15.5609 5.51809 15.7344C5.9046 15.94 6.05839 16.3742 5.8972 16.7451C6.03646 16.9084 6.14885 17.088 6.23438 17.2837C6.66201 17.3413 6.99013 17.6809 6.99013 18.0921C6.99013 18.5033 6.66118 18.8438 6.23355 18.9005C6.14887 19.0958 6.03551 19.2773 5.8972 19.4391C6.05839 19.81 5.90378 20.2442 5.51892 20.4498C5.36277 20.532 5.18675 20.5688 5.01076 20.5562C4.83477 20.5436 4.66582 20.4819 4.52303 20.3783V23.8487H2.87829V5.87993C2.87829 5.43914 2.59375 5.20806 2.31415 5.20806C2.12253 5.20806 1.99671 5.24424 1.91776 5.28043C1.85332 5.30851 1.79563 5.35004 1.74854 5.40223C1.70145 5.45443 1.66606 5.51608 1.64474 5.58306V15.6711H0V5.5403C0 5.20806 0.154605 4.73273 0.495888 4.33717ZM11.9243 1.64474C12.1424 1.64474 12.3516 1.55809 12.5058 1.40387C12.6601 1.24965 12.7467 1.04047 12.7467 0.822368C12.7467 0.604263 12.6601 0.39509 12.5058 0.240866C12.3516 0.0866423 12.1424 0 11.9243 0C11.7062 0 11.4971 0.0866423 11.3428 0.240866C11.1886 0.39509 11.102 0.604263 11.102 0.822368C11.102 1.04047 11.1886 1.24965 11.3428 1.40387C11.4971 1.55809 11.7062 1.64474 11.9243 1.64474ZM10.2796 4.11184C10.4977 4.11184 10.7069 4.0252 10.8611 3.87098C11.0153 3.71675 11.102 3.50758 11.102 3.28947C11.102 3.07137 11.0153 2.86219 10.8611 2.70797C10.7069 2.55375 10.4977 2.46711 10.2796 2.46711C10.0615 2.46711 9.85233 2.55375 9.6981 2.70797C9.54388 2.86219 9.45724 3.07137 9.45724 3.28947C9.45724 3.50758 9.54388 3.71675 9.6981 3.87098C9.85233 4.0252 10.0615 4.11184 10.2796 4.11184Z" fill="black" transform="translate(0, 0)"/>
    <path d="M11.1842 3.0222V0H12.8289V3.08635L12.8265 3.11678C12.8054 3.40565 12.7368 3.68907 12.6234 3.95559C13.0238 4.10033 13.051 4.57237 13.0633 4.80428C13.0655 4.84265 13.0677 4.87308 13.0699 4.89556C13.6587 5.17023 13.9967 5.86102 13.838 6.52632C13.6793 7.19161 13.0781 7.6028 12.4457 7.51151C12.2539 7.78762 12.0219 8.03348 11.7574 8.24095C11.8438 8.90954 11.4564 9.54441 10.8273 9.71299C10.1982 9.88158 9.54441 9.52467 9.28536 8.90296C8.95263 8.85543 8.62887 8.75841 8.32483 8.61513C7.82319 9.00987 7.09704 8.95559 6.62664 8.45888C6.46138 8.28347 6.34225 8.06977 6.27996 7.83696C6.21766 7.60414 6.21415 7.3595 6.26974 7.125C5.39227 7.3125 4.2903 7.71135 3.38816 8.44408C2.4153 9.23355 1.64474 10.4317 1.64474 12.3043V21.4276H0V12.3051C0 9.89556 1.02714 8.2426 2.35115 7.16776C3.64474 6.11678 5.19079 5.63651 6.27385 5.44901C8.68256 5.03125 9.91529 4.4597 10.5378 3.98109C11.0872 3.55839 11.1669 3.20724 11.1842 3.0222ZM19.2204 0V3.27303C19.2566 3.50082 19.3766 3.83964 19.8536 4.21135C20.3939 4.63405 21.4161 5.11678 23.3314 5.44901C24.4145 5.63651 25.9605 6.11678 27.2541 7.16776C28.5781 8.24342 29.6061 9.89556 29.6061 12.3043V21.4276H27.9613V12.3051C27.9613 10.4317 27.19 9.23438 26.2179 8.44408C25.2146 7.62993 23.9646 7.2278 23.0502 7.06908C20.9984 6.71382 19.6785 6.16201 18.8396 5.5074C17.9704 4.82812 17.6604 4.06579 17.5814 3.43174L17.5757 3.38076V0H19.2204Z" fill="black" transform="translate(-3.6, -5.7)"/>
  </g>
</svg>