<svg width="31" height="33" viewBox="0 0 31 33" fill="none" xmlns="http://www.w3.org/2000/svg">
<path d="M29.9898 9.70966C29.5142 6.73077 27.9725 4.30255 25.7947 2.64519C23.6174 0.985277 20.8159 0.08396 17.7975 0.0717087C15.8843 0.0639436 13.8825 0.413885 11.8919 1.15413C7.51794 2.77614 4.97687 5.5766 3.54986 8.2539C2.11823 10.9317 1.76775 13.483 1.66435 14.7054L1.66062 14.7464L1.66252 14.7864L1.66247 14.7972C1.66336 14.8238 1.66513 14.8977 1.66468 15.0069C1.66348 15.3024 1.64635 15.8583 1.56088 16.4355C1.47911 17.0117 1.31299 17.6112 1.09365 17.9554L1.09572 17.9529C0.983198 18.1278 0.920753 18.3451 0.9215 18.5461C0.921083 18.7718 0.986417 18.967 1.06733 19.1263C1.21239 19.406 1.40495 19.6057 1.6042 19.7922C1.90365 20.0673 2.23613 20.3026 2.49228 20.4985C2.55259 20.5444 2.60786 20.5873 2.65695 20.627C2.50592 20.8028 2.25622 21.0351 2.03292 21.2168C1.89859 21.3286 1.77357 21.4255 1.68354 21.4934L1.5781 21.573L1.55033 21.5928L1.54255 21.5985L1.37181 21.7209L1.29919 21.9186C1.29508 21.9308 1.15913 22.3017 1.02113 22.8094C0.884185 23.3202 0.738975 23.9566 0.733931 24.5681C0.735551 24.8004 0.753599 25.0349 0.824949 25.2722C0.749709 25.3621 0.683634 25.4572 0.638108 25.5561C0.51657 25.8116 0.467748 26.0755 0.446093 26.3601C0.435237 26.5093 0.402177 26.8164 0.359637 27.1804C0.294844 27.7299 0.208405 28.4231 0.137211 29.0249C0.101612 29.3264 0.06973 29.6053 0.0467372 29.8344C0.0237276 30.0677 0.00817411 30.2349 0.00658053 30.3811C0.00448559 30.6355 0.0835339 30.8855 0.216504 31.0933C0.417356 31.4075 0.723136 31.6319 1.0846 31.7811C1.44818 31.9303 1.87519 32.007 2.36699 32.0095C2.57987 32.0088 2.82924 31.9811 3.16998 31.9378C4.34312 31.7841 6.46148 31.4065 8.4854 31.0459C9.49602 30.8659 10.4806 30.6899 11.3013 30.5506C12.1199 30.4103 12.7851 30.3058 13.1176 30.2707C13.6426 30.2159 14.1521 30.0328 14.5873 29.7094C15.2448 29.2227 15.708 28.4609 16.0075 27.4634C16.2315 26.7175 16.3721 25.8277 16.4318 24.7662C16.8829 24.9589 17.3917 25.0974 17.9685 25.1448L17.9706 25.1453C18.3531 25.1771 18.7356 25.1951 19.1172 25.1967C22.0542 25.2101 24.8528 24.2665 26.9183 22.2729C28.9862 20.2809 30.272 17.2631 30.284 13.2972C30.2886 12.1785 30.194 10.9835 29.9898 9.70966ZM14.4275 27.777C14.2289 28.1794 14.0078 28.4396 13.7758 28.6115C13.5422 28.7824 13.2905 28.8773 12.9724 28.9129C12.5105 28.9623 11.7063 29.0945 10.7074 29.2669C9.21434 29.5245 7.31203 29.8727 5.67981 30.1544C4.86473 30.2957 4.11684 30.4199 3.52616 30.5088C3.2316 30.5527 2.97596 30.5875 2.7743 30.6108C2.5752 30.6342 2.42128 30.6448 2.37254 30.6436C1.90528 30.6438 1.60671 30.5389 1.47212 30.4512C1.40766 30.4109 1.3816 30.379 1.37297 30.3657C1.37359 30.3349 1.378 30.2646 1.38659 30.1672C1.42211 29.7606 1.516 28.987 1.60625 28.2483C1.69646 27.5039 1.78236 26.8046 1.80789 26.4584C1.81606 26.341 1.83285 26.2544 1.84843 26.2022L1.85311 26.1904L1.90384 26.1958L1.90435 26.1916C1.94234 26.1949 1.98017 26.2063 2.01767 26.206C2.32386 26.2072 2.71829 26.2088 3.15891 26.2106L3.09435 26.6879C3.05949 26.9462 3.24109 27.1839 3.49995 27.2188C3.75831 27.2537 3.99655 27.0721 4.03147 26.8137L4.11184 26.2145C4.5519 26.2163 5.0074 26.2181 5.45209 26.2199L5.39653 26.6336C5.3616 26.8925 5.54327 27.1307 5.80213 27.1657C6.06049 27.2005 6.29873 27.0189 6.33359 26.7601L6.40552 26.2239C6.87176 26.2257 7.29595 26.2275 7.63245 26.2288C8.13605 26.2344 8.60356 26.0502 8.94222 25.7638C9.45486 25.3309 9.71831 24.7421 9.8843 24.1601C10.0477 23.574 10.1055 22.9761 10.1082 22.4679C10.1101 22.2479 10.1495 22.1485 10.1846 22.0917C10.2129 22.0482 10.2465 22.0105 10.3297 21.9589C10.4516 21.8825 10.6915 21.7968 11.0431 21.7315C11.3932 21.6652 11.8488 21.6153 12.3948 21.5657L12.4082 21.5647L12.4821 21.5609C12.6087 21.5625 12.7086 21.5874 12.8244 21.6402C13.024 21.7313 13.2683 21.9426 13.5456 22.253C13.9561 22.705 14.4275 23.3455 15.0945 23.9227C15.063 25.7515 14.805 27.0194 14.4275 27.777ZM25.9698 21.2904C24.199 22.9994 21.7725 23.8399 19.1228 23.8313C18.7807 23.8299 18.434 23.8131 18.0838 23.784L18.0859 23.7845C17.3799 23.7216 16.8632 23.5098 16.4141 23.2161C15.7414 22.7763 15.2363 22.1198 14.6972 21.4939C14.4251 21.183 14.1427 20.8772 13.7882 20.628C13.4373 20.3794 12.9882 20.1949 12.4877 20.1955C12.423 20.1952 12.3497 20.1985 12.2712 20.2058C12.2691 20.2058 12.2671 20.2063 12.2651 20.2063C12.2625 20.2068 12.2604 20.2068 12.2579 20.2068L12.2579 20.2073C11.2686 20.3023 10.5102 20.3761 9.85967 20.6659C9.53539 20.8123 9.22826 21.0418 9.02644 21.3683C8.82299 21.6937 8.74351 22.0739 8.74293 22.4622C8.74331 23.0002 8.64556 23.7072 8.42973 24.1894C8.32412 24.4321 8.19464 24.6111 8.0706 24.7127C7.94301 24.8127 7.83613 24.86 7.63818 24.8627C7.36224 24.8616 7.02681 24.8602 6.658 24.8587L6.72566 24.3559C6.76053 24.097 6.57893 23.8593 6.32007 23.8244C6.06121 23.7895 5.82347 23.9711 5.78854 24.2295L5.70444 24.8549C5.26538 24.8531 4.80995 24.8512 4.36426 24.8494L4.42342 24.4107C4.45834 24.1523 4.27668 23.9141 4.01782 23.8791C3.75946 23.8442 3.52122 24.0259 3.4863 24.2847L3.41064 24.8456C2.91621 24.8436 2.47152 24.8417 2.12171 24.8403C2.10915 24.7798 2.09721 24.6885 2.09923 24.5735C2.09824 24.1883 2.21494 23.6159 2.33882 23.1676C2.4003 22.9416 2.46216 22.7439 2.5078 22.6036C2.51197 22.5913 2.51356 22.5861 2.51766 22.5748C2.67202 22.4575 2.90714 22.2728 3.15115 22.0574C3.35701 21.8746 3.56771 21.6733 3.7486 21.4535C3.83931 21.3421 3.9234 21.227 3.99633 21.0903C4.06664 20.9526 4.13705 20.7908 4.14105 20.5575C4.14147 20.4549 4.1255 20.3399 4.07829 20.2218L4.07928 20.2238C3.99652 20.0266 3.89894 19.9236 3.80703 19.8247C3.64357 19.6585 3.46612 19.5239 3.27845 19.381C2.99923 19.1711 2.70006 18.9514 2.50076 18.7618C2.41241 18.6783 2.35059 18.6053 2.31592 18.5549C2.6528 17.953 2.81458 17.2684 2.91153 16.6348C3.0112 15.9613 3.02855 15.351 3.02992 15.0125C3.03035 14.9079 3.02909 14.833 3.02827 14.7878C3.12467 13.6592 3.45881 11.3161 4.75401 8.89835C6.06417 6.45915 8.31733 3.94471 12.3678 2.43369C14.2099 1.74873 16.049 1.4305 17.7919 1.43757C20.5436 1.44874 23.0515 2.26987 24.9669 3.73122C26.8814 5.19463 28.2152 7.28662 28.6409 9.92625C28.8345 11.1329 28.9229 12.2545 28.9187 13.2916C28.8996 16.9758 27.7381 19.5792 25.9698 21.2904Z" fill="black"/>
<path d="M7.31105 12.8165C6.16283 12.2672 5.05278 12.9243 4.87402 13.7421C4.58821 15.0515 5.52218 15.4292 5.98327 17.2094C6.4443 18.9895 8.06883 19.4782 9.0677 18.1579C10.4791 16.2921 9.08587 13.666 7.31105 12.8165Z" fill="black"/>
</svg>
